<?xml version="1.0" encoding="utf-8"?>
<!-- Generator: Adobe Illustrator 26.0.2, SVG Export Plug-In . SVG Version: 6.00 Build 0)  -->
<svg version="1.1" id="gruen_x5F_sekundaer" xmlns="http://www.w3.org/2000/svg" xmlns:xlink="http://www.w3.org/1999/xlink"
	 x="0px" y="0px" viewBox="0 0 50 50" style="enable-background:new 0 0 50 50;" xml:space="preserve">
<style type="text/css">
	.st0{fill:none;stroke:#02893E;stroke-miterlimit:10;}
	.st1{fill:none;stroke:#02893E;stroke-linecap:round;stroke-miterlimit:10;}
	.st2{fill:none;stroke:#02893E;stroke-linecap:round;stroke-linejoin:round;stroke-miterlimit:10;}
</style>
<g>
	<g>
		<path class="st0" d="M35.11,27.45c0-0.08-0.07-0.14-0.15-0.14h-3.52c-0.08,0-0.15,0.06-0.15,0.14v2.27"/>
		<line class="st0" x1="35.11" y1="27.45" x2="35.11" y2="29.72"/>
	</g>
	<path class="st0" d="M23.79,29.88c0,0.08,0.07,0.14,0.15,0.14h7.19c0.08,0,0.15-0.06,0.15-0.14V24.8c0-0.08-0.07-0.14-0.15-0.14
		h-9.19"/>
	<line class="st0" x1="31.43" y1="27.34" x2="24.1" y2="27.34"/>
	<line class="st0" x1="42.03" y1="30.11" x2="35.16" y2="30.11"/>
	<line class="st0" x1="46.42" y1="30.11" x2="44.09" y2="30.11"/>
	<line class="st0" x1="27.62" y1="24.66" x2="27.62" y2="29.89"/>
	<g>
		<path class="st0" d="M16.49,30.02h7.19c0.08,0,0.15-0.07,0.15-0.15v-5.06c0-0.08-0.07-0.15-0.15-0.15h-7.19
			c-0.08,0-0.15,0.07-0.15,0.15v5.06C16.33,29.95,16.4,30.02,16.49,30.02z"/>
		<line class="st0" x1="23.97" y1="27.34" x2="16.64" y2="27.34"/>
		<line class="st0" x1="20.16" y1="24.66" x2="20.16" y2="29.89"/>
	</g>
	<g>
		<path class="st1" d="M16.33,27.28H12.8c-0.08,0-0.15,0.06-0.15,0.14v2.55"/>
	</g>
	<g>
		<path class="st0" d="M35.87,30.11c0.16,0,0.35-0.12,0.42-0.26l1.16-2.28c0.07-0.14,0.26-0.26,0.42-0.26h10.09
			c0.16,0,0.22,0.11,0.12,0.24l-4.73,6.76c-0.09,0.13-0.3,0.24-0.46,0.24H5.52c-0.16,0-0.41-0.06-0.55-0.13l-2.91-1.4
			c-0.15-0.06-0.27-0.24-0.28-0.4l-0.02-2.25c0-0.16,0.13-0.29,0.29-0.29L35.87,30.11z"/>
	</g>
	<polyline class="st2" points="4.81,29.61 4.81,24.43 7.39,24.43 7.39,21.55 11.25,21.55 11.25,29.72 	"/>
	<line class="st1" x1="10.85" y1="23.21" x2="9.68" y2="23.21"/>
</g>
</svg>
