<?xml version="1.0" encoding="utf-8"?>
<!-- Generator: Adobe Illustrator 26.0.2, SVG Export Plug-In . SVG Version: 6.00 Build 0)  -->
<svg version="1.1" id="gruen_x5F_sekundaer" xmlns="http://www.w3.org/2000/svg" xmlns:xlink="http://www.w3.org/1999/xlink"
	 x="0px" y="0px" viewBox="0 0 50 50" style="enable-background:new 0 0 50 50;" xml:space="preserve">
<style type="text/css">
	.st0{fill:none;stroke:#02893E;stroke-miterlimit:10;}
</style>
<g>
	<circle class="st0" cx="10.8" cy="31.9" r="2.8"/>
	<circle class="st0" cx="35.3" cy="31.9" r="2.8"/>
	<line class="st0" x1="16" y1="31.9" x2="32.5" y2="31.9"/>
	<g>
		<path class="st0" d="M38.4,32.2c2.6-0.5,6-1.6,6-1.6l0,0c0,0,0.4-5.2,0.1-5.7c-0.4-0.5-0.8-0.5-1.4-0.6c-0.6,0-3,0-3,0l0,0
			c0,0-2.6-4.2-3.6-4.4c-0.9-0.1-8.5-0.1-10.4-0.1c-1.8,0-9,4.2-10.1,4.8c-0.1,0-0.2,0.1-0.2,0.1c-2.4,0.4-7.4,0.8-7.9,1.4
			c-0.4,0.5-1.3,1.6-2.2,4.8c-0.1,0.4,0.1,0.7,0.5,0.8l2,0.3"/>
	</g>
</g>
</svg>
