<?xml version="1.0" encoding="utf-8"?>
<!-- Generator: Adobe Illustrator 26.0.2, SVG Export Plug-In . SVG Version: 6.00 Build 0)  -->
<svg version="1.1" id="gruen_x5F_sekundaer" xmlns="http://www.w3.org/2000/svg" xmlns:xlink="http://www.w3.org/1999/xlink"
	 x="0px" y="0px" viewBox="0 0 50 50" style="enable-background:new 0 0 50 50;" xml:space="preserve">
<style type="text/css">
	.st0{fill:none;stroke:#02893E;stroke-linecap:round;stroke-linejoin:round;stroke-miterlimit:10;}
	.st1{fill:none;stroke:#02893E;stroke-linejoin:round;stroke-miterlimit:10;}
</style>
<path class="st0" d="M11.5,33.7l0.3,0.1c0.9,0.2,1.8,0.1,2.7-0.2l11-4.4l-1.8,13c0,0,2.8-0.8,3.1-1.6s6.8-15.1,6.8-15.1
	s5.4-2.6,6.2-2.9c0.8-0.4,4.2-2.4,4.9-3c0.6-0.5,1.3-1.7-1.9-2.3c-2.7-0.5-2.7-0.4-4.3,0C37,17.7,12.8,28.8,12.8,28.8
	c-0.2,0-0.8-0.2-1-0.3L7.1,25l-2,0.7l4.8,7C10.3,33.2,10.8,33.6,11.5,33.7z"/>
<path class="st1" d="M28.5,21.7l-11.2-3.3c-0.3-0.1-0.7-0.1-1,0l-2.8,0.9l6,4.1"/>
<line class="st0" x1="42.8" y1="17.3" x2="39.5" y2="18.9"/>
</svg>
