<?xml version="1.0" encoding="utf-8"?>
<!-- Generator: Adobe Illustrator 26.0.2, SVG Export Plug-In . SVG Version: 6.00 Build 0)  -->
<svg version="1.1" id="gruen_x5F_sekundaer" xmlns="http://www.w3.org/2000/svg" xmlns:xlink="http://www.w3.org/1999/xlink"
	 x="0px" y="0px" viewBox="0 0 50 50" style="enable-background:new 0 0 50 50;" xml:space="preserve">
<style type="text/css">
	.st0{fill:none;stroke:#02893E;stroke-miterlimit:10;}
	.st1{fill:none;stroke:#02893E;stroke-linecap:round;stroke-miterlimit:10;}
	.st2{fill:none;stroke:#02893E;stroke-linecap:round;stroke-linejoin:round;stroke-miterlimit:10;}
</style>
<g>
	<line class="st0" x1="29.2" y1="31.6" x2="13.8" y2="31.6"/>
	<line class="st1" x1="38.7" y1="31.6" x2="46.1" y2="31.6"/>
	<g>
		<path class="st0" d="M43.3,16.3h2.2c0.2,0,0.3,0.1,0.3,0.3v11.5c0,0.2-0.1,0.3-0.3,0.3h-29c-0.2,0-0.3-0.1-0.3-0.3V16.6
			c0-0.2,0.1-0.3,0.3-0.3h24.1"/>
	</g>
	<circle class="st0" cx="11.8" cy="31.8" r="2"/>
	<circle class="st0" cx="31.2" cy="31.8" r="2"/>
	<circle class="st0" cx="36.7" cy="31.8" r="2"/>
	<polyline class="st2" points="5.8,24.3 5.8,27.2 5.8,31.6 9.8,31.6 	"/>
	<line class="st2" x1="14.2" y1="28.4" x2="14.2" y2="16.3"/>
	<polyline class="st2" points="11.8,19.9 7.7,19.9 5.8,24.2 11.8,23 11.8,19.9 	"/>
	<path class="st2" d="M7.7,19.9l0.7-1.6c0.2-0.5,0.6-0.8,1-0.9l4.8-1.1"/>
</g>
</svg>
