<?xml version="1.0" encoding="utf-8"?>
<!-- Generator: Adobe Illustrator 26.0.2, SVG Export Plug-In . SVG Version: 6.00 Build 0)  -->
<svg version="1.1" id="gruen_x5F_sekundaer" xmlns="http://www.w3.org/2000/svg" xmlns:xlink="http://www.w3.org/1999/xlink"
	 x="0px" y="0px" viewBox="0 0 50 50" style="enable-background:new 0 0 50 50;" xml:space="preserve">
<style type="text/css">
	.st0{fill:none;stroke:#02893E;stroke-linecap:round;stroke-miterlimit:10;}
	.st1{fill:none;stroke:#02893E;stroke-linecap:round;stroke-linejoin:round;stroke-miterlimit:10;}
	.st2{fill:none;stroke:#02893E;stroke-linejoin:round;stroke-miterlimit:10;}
	.st3{fill:none;stroke:#02893E;stroke-width:0.9;stroke-linecap:round;stroke-linejoin:round;stroke-miterlimit:10;}
	.st4{fill:none;stroke:#02893E;stroke-miterlimit:10;}
</style>
<g>
	<path class="st0" d="M22.9,14.7c0.3,1.1-0.3,2.2-1.4,2.5s-2.2-0.3-2.5-1.4s0.3-2.2,1.4-2.5C21.4,13,22.6,13.6,22.9,14.7z"/>
	<line class="st0" x1="20.9" y1="12" x2="20.9" y2="10.2"/>
	<line class="st0" x1="18.6" y1="13" x2="17.3" y2="11.7"/>
	<line class="st0" x1="17.6" y1="15.3" x2="15.8" y2="15.3"/>
	<line class="st0" x1="18.6" y1="17.6" x2="17.3" y2="18.9"/>
	<line class="st0" x1="20.9" y1="18.6" x2="20.9" y2="20.4"/>
	<line class="st0" x1="23.2" y1="17.6" x2="24.5" y2="18.9"/>
	<line class="st0" x1="24.2" y1="15.3" x2="26" y2="15.3"/>
	<line class="st0" x1="23.2" y1="13" x2="24.5" y2="11.7"/>
</g>
<line class="st0" x1="16.3" y1="35.9" x2="16.3" y2="25.8"/>
<g>
	<line class="st0" x1="19.5" y1="30.8" x2="16.2" y2="25.8"/>
	<line class="st0" x1="18.9" y1="20.5" x2="16.2" y2="25.8"/>
	<line class="st0" x1="10.3" y1="26.2" x2="16.2" y2="25.8"/>
</g>
<g>
	<line class="st1" x1="27.7" y1="8" x2="28.7" y2="8.2"/>
	<polyline class="st1" points="33.8,11.3 28.1,10.2 28.5,8.1 31.8,8.8 35.9,13.8 	"/>
</g>
<path class="st0" d="M35.7,35.9c-1.8-0.8-4.6-1.7-7.4-1.7c-7.1,0-9.5,1.9-14.6,2.3"/>
<path class="st2" d="M37,34.6c-3,3.6-7.6,5.9-12.6,5.9c-9.1,0-16.4-7.4-16.4-16.4c0-9.1,7.4-16.4,16.4-16.4c1.3,0,2.5,0.1,3.7,0.4"
	/>
<g>
	<path class="st3" d="M31.2,31.1c-1.2,1.1-2.2,0.9-2.9,0.2s-0.8-1.8,0.4-2.9c1.2-1.1,3.3-1,3.8-1C32.4,27.9,32.4,30,31.2,31.1z"/>
	<path class="st3" d="M22.8,29.2c1.1,1.6,2.4,1.6,3.5,0.9c1-0.7,1.4-2,0.2-3.6c-1.1-1.6-3.8-1.9-4.3-2.1
		C22,25.1,21.6,27.6,22.8,29.2z"/>
	<path class="st3" d="M24,27c1,1,3.7,4.3,3.8,8.3"/>
	<path class="st3" d="M30.6,29.2c-1.3,0.5-2.1,1.6-3.1,4.2"/>
</g>
<g>
	<path class="st4" d="M36.5,33.4c3.1,0,5.7-2.8,5.7-6.3c0-1.9-1.4-4-2.9-6.4"/>
	<path class="st4" d="M30.9,26.4c0.6-3.4,5.1-8,5.6-11c0,0,0,0,0,0c0.2,1.1,1.2,2.8,2,4.2"/>
	<path class="st4" d="M36.5,33.4c-1.6,0-3.1-0.7-4.1-1.9"/>
</g>
</svg>
