<?xml version="1.0" encoding="utf-8"?>
<!-- Generator: Adobe Illustrator 26.0.2, SVG Export Plug-In . SVG Version: 6.00 Build 0)  -->
<svg version="1.1" id="cyan_x5F_sekundaer" xmlns="http://www.w3.org/2000/svg" xmlns:xlink="http://www.w3.org/1999/xlink" x="0px"
	 y="0px" viewBox="0 0 50 50" style="enable-background:new 0 0 50 50;" xml:space="preserve">
<style type="text/css">
	.st0{fill:#1796C2;}
	.st1{fill:none;stroke:#1796C2;stroke-linecap:round;stroke-miterlimit:10;}
	.st2{fill:none;stroke:#1796C2;stroke-width:0.75;stroke-linecap:round;stroke-miterlimit:10;}
	.st3{fill:none;stroke:#1796C2;stroke-miterlimit:10;}
</style>
<g>
	<path class="st0" d="M13.59,27.41c-0.1,0-0.17-0.03-0.23-0.09c-0.05-0.06-0.08-0.13-0.08-0.22v-8.72c0-0.1,0.03-0.18,0.08-0.23
		c0.05-0.06,0.13-0.09,0.23-0.09h0.68c0.1,0,0.18,0.03,0.23,0.09c0.06,0.06,0.09,0.14,0.09,0.23v3.69h4.6v-3.69
		c0-0.1,0.03-0.18,0.09-0.23c0.06-0.06,0.13-0.09,0.22-0.09h0.68c0.1,0,0.18,0.03,0.23,0.09c0.06,0.06,0.09,0.14,0.09,0.23v8.72
		c0,0.09-0.03,0.16-0.09,0.22c-0.06,0.06-0.14,0.09-0.23,0.09H19.5c-0.09,0-0.16-0.03-0.22-0.09c-0.06-0.06-0.09-0.13-0.09-0.22
		v-3.83h-4.6v3.83c0,0.09-0.03,0.16-0.09,0.22c-0.06,0.06-0.14,0.09-0.23,0.09H13.59z"/>
	<path class="st0" d="M22.36,29.64c-0.2,0-0.29-0.1-0.29-0.29v-0.29c0-0.07,0.02-0.14,0.07-0.21c0.04-0.07,0.13-0.14,0.25-0.23
		c0.54-0.4,0.98-0.72,1.32-0.96c0.34-0.24,0.58-0.45,0.74-0.64c0.15-0.19,0.23-0.39,0.23-0.61c0-0.2-0.07-0.35-0.21-0.47
		c-0.14-0.12-0.32-0.18-0.53-0.18c-0.21,0-0.37,0.03-0.47,0.1c-0.1,0.07-0.18,0.14-0.22,0.22c-0.04,0.08-0.08,0.15-0.11,0.2
		c-0.05,0.1-0.1,0.16-0.15,0.19c-0.04,0.03-0.1,0.05-0.17,0.05h-0.37c-0.18,0-0.26-0.08-0.24-0.25c0.02-0.24,0.1-0.46,0.26-0.66
		c0.16-0.2,0.36-0.37,0.62-0.49c0.26-0.13,0.54-0.19,0.86-0.19c0.53,0,0.94,0.14,1.25,0.43c0.31,0.29,0.46,0.64,0.46,1.05
		c0,0.31-0.07,0.59-0.21,0.83c-0.14,0.24-0.36,0.48-0.65,0.72c-0.29,0.24-0.67,0.52-1.14,0.84h1.91c0.2,0,0.29,0.1,0.29,0.29v0.28
		c0,0.2-0.1,0.29-0.29,0.29H22.36z"/>
</g>
<path class="st1" d="M37.57,35.19c-1.39-0.94-5.27-2.39-8.75-2.39c-7.9,0-9.99,2.39-16.38,2.39"/>
<g>
	<circle class="st2" cx="27.72" cy="15.98" r="1.68"/>
	<line class="st2" x1="27.72" y1="13.3" x2="27.72" y2="11.81"/>
	<line class="st2" x1="25.82" y1="14.09" x2="24.77" y2="13.04"/>
	<line class="st2" x1="25.04" y1="15.98" x2="23.55" y2="15.98"/>
	<line class="st2" x1="25.82" y1="17.88" x2="24.77" y2="18.93"/>
	<line class="st2" x1="27.72" y1="18.66" x2="27.72" y2="20.15"/>
	<line class="st2" x1="29.61" y1="17.88" x2="30.67" y2="18.93"/>
	<line class="st2" x1="30.4" y1="15.98" x2="31.89" y2="15.98"/>
	<line class="st2" x1="29.61" y1="14.09" x2="30.67" y2="13.04"/>
</g>
<g>
	<line class="st1" x1="33.63" y1="33.15" x2="33.63" y2="23.35"/>
	<line class="st1" x1="35.78" y1="28.39" x2="33.61" y2="23.28"/>
	<line class="st1" x1="36.95" y1="18.84" x2="33.61" y2="23.28"/>
	<line class="st1" x1="28.1" y1="22.6" x2="33.61" y2="23.28"/>
</g>
<path class="st3" d="M32.8,10.49c5.16,2.78,8.67,8.23,8.67,14.51c0,9.1-7.37,16.47-16.47,16.47S8.53,34.1,8.53,25
	C8.53,15.9,15.9,8.53,25,8.53c1.38,0,2.71,0.17,3.99,0.49"/>
</svg>
